<?xml version="1.0" encoding="utf-8" standalone="no"?>
<!DOCTYPE svg PUBLIC "-//W3C//DTD SVG 1.1//EN"
  "http://www.w3.org/Graphics/SVG/1.1/DTD/svg11.dtd">
<svg xmlns:xlink="http://www.w3.org/1999/xlink" width="720pt" height="432pt" viewBox="0 0 720 432" xmlns="http://www.w3.org/2000/svg" version="1.1">
 <metadata>
  <rdf:RDF xmlns:dc="http://purl.org/dc/elements/1.1/" xmlns:cc="http://creativecommons.org/ns#" xmlns:rdf="http://www.w3.org/1999/02/22-rdf-syntax-ns#">
   <cc:Work>
    <dc:type rdf:resource="http://purl.org/dc/dcmitype/StillImage"/>
    <dc:date>2022-10-20T22:16:46.050685</dc:date>
    <dc:format>image/svg+xml</dc:format>
    <dc:creator>
     <cc:Agent>
      <dc:title>Matplotlib v3.6.0, https://matplotlib.org/</dc:title>
     </cc:Agent>
    </dc:creator>
   </cc:Work>
  </rdf:RDF>
 </metadata>
 <defs>
  <style type="text/css">*{stroke-linejoin: round; stroke-linecap: butt}</style>
 </defs>
 <g id="figure_1">
  <g id="patch_1">
   <path d="M 0 432 
L 720 432 
L 720 0 
L 0 0 
z
" style="fill: #ffffff"/>
  </g>
  <g id="axes_1">
   <g id="patch_2">
    <path d="M 48.89 390.04 
L 709.2 390.04 
L 709.2 25.49625 
L 48.89 25.49625 
z
" style="fill: #eaeaf2"/>
   </g>
   <g id="matplotlib.axis_1">
    <g id="xtick_1">
     <g id="line2d_1">
      <path d="M 78.904091 390.04 
L 78.904091 25.49625 
" clip-path="url(#p7cfe90024b)" style="fill: none; stroke: #ffffff; stroke-width: 0.8; stroke-linecap: round"/>
     </g>
     <g id="text_1">
      <!-- 0 -->
      <g style="fill: #262626" transform="translate(76.123622 404.197812) scale(0.1 -0.1)">
       <defs>
        <path id="ArialMT-30" d="M 266 2259 
Q 266 3072 433 3567 
Q 600 4063 929 4331 
Q 1259 4600 1759 4600 
Q 2128 4600 2406 4451 
Q 2684 4303 2865 4023 
Q 3047 3744 3150 3342 
Q 3253 2941 3253 2259 
Q 3253 1453 3087 958 
Q 2922 463 2592 192 
Q 2263 -78 1759 -78 
Q 1097 -78 719 397 
Q 266 969 266 2259 
z
M 844 2259 
Q 844 1131 1108 757 
Q 1372 384 1759 384 
Q 2147 384 2411 759 
Q 2675 1134 2675 2259 
Q 2675 3391 2411 3762 
Q 2147 4134 1753 4134 
Q 1366 4134 1134 3806 
Q 844 3388 844 2259 
z
" transform="scale(0.015625)"/>
       </defs>
       <use xlink:href="#ArialMT-30"/>
      </g>
     </g>
    </g>
    <g id="xtick_2">
     <g id="line2d_2">
      <path d="M 198.960455 390.04 
L 198.960455 25.49625 
" clip-path="url(#p7cfe90024b)" style="fill: none; stroke: #ffffff; stroke-width: 0.8; stroke-linecap: round"/>
     </g>
     <g id="text_2">
      <!-- 20 -->
      <g style="fill: #262626" transform="translate(193.399517 404.197812) scale(0.1 -0.1)">
       <defs>
        <path id="ArialMT-32" d="M 3222 541 
L 3222 0 
L 194 0 
Q 188 203 259 391 
Q 375 700 629 1000 
Q 884 1300 1366 1694 
Q 2113 2306 2375 2664 
Q 2638 3022 2638 3341 
Q 2638 3675 2398 3904 
Q 2159 4134 1775 4134 
Q 1369 4134 1125 3890 
Q 881 3647 878 3216 
L 300 3275 
Q 359 3922 746 4261 
Q 1134 4600 1788 4600 
Q 2447 4600 2831 4234 
Q 3216 3869 3216 3328 
Q 3216 3053 3103 2787 
Q 2991 2522 2730 2228 
Q 2469 1934 1863 1422 
Q 1356 997 1212 845 
Q 1069 694 975 541 
L 3222 541 
z
" transform="scale(0.015625)"/>
       </defs>
       <use xlink:href="#ArialMT-32"/>
       <use xlink:href="#ArialMT-30" x="55.615234"/>
      </g>
     </g>
    </g>
    <g id="xtick_3">
     <g id="line2d_3">
      <path d="M 319.016818 390.04 
L 319.016818 25.49625 
" clip-path="url(#p7cfe90024b)" style="fill: none; stroke: #ffffff; stroke-width: 0.8; stroke-linecap: round"/>
     </g>
     <g id="text_3">
      <!-- 40 -->
      <g style="fill: #262626" transform="translate(313.455881 404.197812) scale(0.1 -0.1)">
       <defs>
        <path id="ArialMT-34" d="M 2069 0 
L 2069 1097 
L 81 1097 
L 81 1613 
L 2172 4581 
L 2631 4581 
L 2631 1613 
L 3250 1613 
L 3250 1097 
L 2631 1097 
L 2631 0 
L 2069 0 
z
M 2069 1613 
L 2069 3678 
L 634 1613 
L 2069 1613 
z
" transform="scale(0.015625)"/>
       </defs>
       <use xlink:href="#ArialMT-34"/>
       <use xlink:href="#ArialMT-30" x="55.615234"/>
      </g>
     </g>
    </g>
    <g id="xtick_4">
     <g id="line2d_4">
      <path d="M 439.073182 390.04 
L 439.073182 25.49625 
" clip-path="url(#p7cfe90024b)" style="fill: none; stroke: #ffffff; stroke-width: 0.8; stroke-linecap: round"/>
     </g>
     <g id="text_4">
      <!-- 60 -->
      <g style="fill: #262626" transform="translate(433.512244 404.197812) scale(0.1 -0.1)">
       <defs>
        <path id="ArialMT-36" d="M 3184 3459 
L 2625 3416 
Q 2550 3747 2413 3897 
Q 2184 4138 1850 4138 
Q 1581 4138 1378 3988 
Q 1113 3794 959 3422 
Q 806 3050 800 2363 
Q 1003 2672 1297 2822 
Q 1591 2972 1913 2972 
Q 2475 2972 2870 2558 
Q 3266 2144 3266 1488 
Q 3266 1056 3080 686 
Q 2894 316 2569 119 
Q 2244 -78 1831 -78 
Q 1128 -78 684 439 
Q 241 956 241 2144 
Q 241 3472 731 4075 
Q 1159 4600 1884 4600 
Q 2425 4600 2770 4297 
Q 3116 3994 3184 3459 
z
M 888 1484 
Q 888 1194 1011 928 
Q 1134 663 1356 523 
Q 1578 384 1822 384 
Q 2178 384 2434 671 
Q 2691 959 2691 1453 
Q 2691 1928 2437 2201 
Q 2184 2475 1800 2475 
Q 1419 2475 1153 2201 
Q 888 1928 888 1484 
z
" transform="scale(0.015625)"/>
       </defs>
       <use xlink:href="#ArialMT-36"/>
       <use xlink:href="#ArialMT-30" x="55.615234"/>
      </g>
     </g>
    </g>
    <g id="xtick_5">
     <g id="line2d_5">
      <path d="M 559.129545 390.04 
L 559.129545 25.49625 
" clip-path="url(#p7cfe90024b)" style="fill: none; stroke: #ffffff; stroke-width: 0.8; stroke-linecap: round"/>
     </g>
     <g id="text_5">
      <!-- 80 -->
      <g style="fill: #262626" transform="translate(553.568608 404.197812) scale(0.1 -0.1)">
       <defs>
        <path id="ArialMT-38" d="M 1131 2484 
Q 781 2613 612 2850 
Q 444 3088 444 3419 
Q 444 3919 803 4259 
Q 1163 4600 1759 4600 
Q 2359 4600 2725 4251 
Q 3091 3903 3091 3403 
Q 3091 3084 2923 2848 
Q 2756 2613 2416 2484 
Q 2838 2347 3058 2040 
Q 3278 1734 3278 1309 
Q 3278 722 2862 322 
Q 2447 -78 1769 -78 
Q 1091 -78 675 323 
Q 259 725 259 1325 
Q 259 1772 486 2073 
Q 713 2375 1131 2484 
z
M 1019 3438 
Q 1019 3113 1228 2906 
Q 1438 2700 1772 2700 
Q 2097 2700 2305 2904 
Q 2513 3109 2513 3406 
Q 2513 3716 2298 3927 
Q 2084 4138 1766 4138 
Q 1444 4138 1231 3931 
Q 1019 3725 1019 3438 
z
M 838 1322 
Q 838 1081 952 856 
Q 1066 631 1291 507 
Q 1516 384 1775 384 
Q 2178 384 2440 643 
Q 2703 903 2703 1303 
Q 2703 1709 2433 1975 
Q 2163 2241 1756 2241 
Q 1359 2241 1098 1978 
Q 838 1716 838 1322 
z
" transform="scale(0.015625)"/>
       </defs>
       <use xlink:href="#ArialMT-38"/>
       <use xlink:href="#ArialMT-30" x="55.615234"/>
      </g>
     </g>
    </g>
    <g id="xtick_6">
     <g id="line2d_6">
      <path d="M 679.185909 390.04 
L 679.185909 25.49625 
" clip-path="url(#p7cfe90024b)" style="fill: none; stroke: #ffffff; stroke-width: 0.8; stroke-linecap: round"/>
     </g>
     <g id="text_6">
      <!-- 100 -->
      <g style="fill: #262626" transform="translate(670.844503 404.197812) scale(0.1 -0.1)">
       <defs>
        <path id="ArialMT-31" d="M 2384 0 
L 1822 0 
L 1822 3584 
Q 1619 3391 1289 3197 
Q 959 3003 697 2906 
L 697 3450 
Q 1169 3672 1522 3987 
Q 1875 4303 2022 4600 
L 2384 4600 
L 2384 0 
z
" transform="scale(0.015625)"/>
       </defs>
       <use xlink:href="#ArialMT-31"/>
       <use xlink:href="#ArialMT-30" x="55.615234"/>
       <use xlink:href="#ArialMT-30" x="111.230469"/>
      </g>
     </g>
    </g>
    <g id="text_7">
     <!-- Time -->
     <g style="fill: #262626" transform="translate(368.122344 417.343125) scale(0.1 -0.1)">
      <defs>
       <path id="ArialMT-54" d="M 1659 0 
L 1659 4041 
L 150 4041 
L 150 4581 
L 3781 4581 
L 3781 4041 
L 2266 4041 
L 2266 0 
L 1659 0 
z
" transform="scale(0.015625)"/>
       <path id="ArialMT-69" d="M 425 3934 
L 425 4581 
L 988 4581 
L 988 3934 
L 425 3934 
z
M 425 0 
L 425 3319 
L 988 3319 
L 988 0 
L 425 0 
z
" transform="scale(0.015625)"/>
       <path id="ArialMT-6d" d="M 422 0 
L 422 3319 
L 925 3319 
L 925 2853 
Q 1081 3097 1340 3245 
Q 1600 3394 1931 3394 
Q 2300 3394 2536 3241 
Q 2772 3088 2869 2813 
Q 3263 3394 3894 3394 
Q 4388 3394 4653 3120 
Q 4919 2847 4919 2278 
L 4919 0 
L 4359 0 
L 4359 2091 
Q 4359 2428 4304 2576 
Q 4250 2725 4106 2815 
Q 3963 2906 3769 2906 
Q 3419 2906 3187 2673 
Q 2956 2441 2956 1928 
L 2956 0 
L 2394 0 
L 2394 2156 
Q 2394 2531 2256 2718 
Q 2119 2906 1806 2906 
Q 1569 2906 1367 2781 
Q 1166 2656 1075 2415 
Q 984 2175 984 1722 
L 984 0 
L 422 0 
z
" transform="scale(0.015625)"/>
       <path id="ArialMT-65" d="M 2694 1069 
L 3275 997 
Q 3138 488 2766 206 
Q 2394 -75 1816 -75 
Q 1088 -75 661 373 
Q 234 822 234 1631 
Q 234 2469 665 2931 
Q 1097 3394 1784 3394 
Q 2450 3394 2872 2941 
Q 3294 2488 3294 1666 
Q 3294 1616 3291 1516 
L 816 1516 
Q 847 969 1125 678 
Q 1403 388 1819 388 
Q 2128 388 2347 550 
Q 2566 713 2694 1069 
z
M 847 1978 
L 2700 1978 
Q 2663 2397 2488 2606 
Q 2219 2931 1791 2931 
Q 1403 2931 1139 2672 
Q 875 2413 847 1978 
z
" transform="scale(0.015625)"/>
      </defs>
      <use xlink:href="#ArialMT-54"/>
      <use xlink:href="#ArialMT-69" x="57.333984"/>
      <use xlink:href="#ArialMT-6d" x="79.550781"/>
      <use xlink:href="#ArialMT-65" x="162.851562"/>
     </g>
    </g>
   </g>
   <g id="matplotlib.axis_2">
    <g id="ytick_1">
     <g id="line2d_7">
      <path d="M 48.89 367.131646 
L 709.2 367.131646 
" clip-path="url(#p7cfe90024b)" style="fill: none; stroke: #ffffff; stroke-width: 0.8; stroke-linecap: round"/>
     </g>
     <g id="text_8">
      <!-- −40 -->
      <g style="fill: #262626" transform="translate(24.9275 370.710552) scale(0.1 -0.1)">
       <defs>
        <path id="ArialMT-2212" d="M 3381 1997 
L 356 1997 
L 356 2522 
L 3381 2522 
L 3381 1997 
z
" transform="scale(0.015625)"/>
       </defs>
       <use xlink:href="#ArialMT-2212"/>
       <use xlink:href="#ArialMT-34" x="58.398438"/>
       <use xlink:href="#ArialMT-30" x="114.013672"/>
      </g>
     </g>
    </g>
    <g id="ytick_2">
     <g id="line2d_8">
      <path d="M 48.89 304.493853 
L 709.2 304.493853 
" clip-path="url(#p7cfe90024b)" style="fill: none; stroke: #ffffff; stroke-width: 0.8; stroke-linecap: round"/>
     </g>
     <g id="text_9">
      <!-- −20 -->
      <g style="fill: #262626" transform="translate(24.9275 308.072759) scale(0.1 -0.1)">
       <use xlink:href="#ArialMT-2212"/>
       <use xlink:href="#ArialMT-32" x="58.398438"/>
       <use xlink:href="#ArialMT-30" x="114.013672"/>
      </g>
     </g>
    </g>
    <g id="ytick_3">
     <g id="line2d_9">
      <path d="M 48.89 241.85606 
L 709.2 241.85606 
" clip-path="url(#p7cfe90024b)" style="fill: none; stroke: #ffffff; stroke-width: 0.8; stroke-linecap: round"/>
     </g>
     <g id="text_10">
      <!-- 0 -->
      <g style="fill: #262626" transform="translate(36.329063 245.434967) scale(0.1 -0.1)">
       <use xlink:href="#ArialMT-30"/>
      </g>
     </g>
    </g>
    <g id="ytick_4">
     <g id="line2d_10">
      <path d="M 48.89 179.218268 
L 709.2 179.218268 
" clip-path="url(#p7cfe90024b)" style="fill: none; stroke: #ffffff; stroke-width: 0.8; stroke-linecap: round"/>
     </g>
     <g id="text_11">
      <!-- 20 -->
      <g style="fill: #262626" transform="translate(30.768125 182.797174) scale(0.1 -0.1)">
       <use xlink:href="#ArialMT-32"/>
       <use xlink:href="#ArialMT-30" x="55.615234"/>
      </g>
     </g>
    </g>
    <g id="ytick_5">
     <g id="line2d_11">
      <path d="M 48.89 116.580475 
L 709.2 116.580475 
" clip-path="url(#p7cfe90024b)" style="fill: none; stroke: #ffffff; stroke-width: 0.8; stroke-linecap: round"/>
     </g>
     <g id="text_12">
      <!-- 40 -->
      <g style="fill: #262626" transform="translate(30.768125 120.159381) scale(0.1 -0.1)">
       <use xlink:href="#ArialMT-34"/>
       <use xlink:href="#ArialMT-30" x="55.615234"/>
      </g>
     </g>
    </g>
    <g id="ytick_6">
     <g id="line2d_12">
      <path d="M 48.89 53.942682 
L 709.2 53.942682 
" clip-path="url(#p7cfe90024b)" style="fill: none; stroke: #ffffff; stroke-width: 0.8; stroke-linecap: round"/>
     </g>
     <g id="text_13">
      <!-- 60 -->
      <g style="fill: #262626" transform="translate(30.768125 57.521588) scale(0.1 -0.1)">
       <use xlink:href="#ArialMT-36"/>
       <use xlink:href="#ArialMT-30" x="55.615234"/>
      </g>
     </g>
    </g>
    <g id="text_14">
     <!-- Wealth -->
     <g style="fill: #262626" transform="translate(18.94 223.241562) rotate(-90) scale(0.1 -0.1)">
      <defs>
       <path id="ArialMT-57" d="M 1294 0 
L 78 4581 
L 700 4581 
L 1397 1578 
Q 1509 1106 1591 641 
Q 1766 1375 1797 1488 
L 2669 4581 
L 3400 4581 
L 4056 2263 
Q 4303 1400 4413 641 
Q 4500 1075 4641 1638 
L 5359 4581 
L 5969 4581 
L 4713 0 
L 4128 0 
L 3163 3491 
Q 3041 3928 3019 4028 
Q 2947 3713 2884 3491 
L 1913 0 
L 1294 0 
z
" transform="scale(0.015625)"/>
       <path id="ArialMT-61" d="M 2588 409 
Q 2275 144 1986 34 
Q 1697 -75 1366 -75 
Q 819 -75 525 192 
Q 231 459 231 875 
Q 231 1119 342 1320 
Q 453 1522 633 1644 
Q 813 1766 1038 1828 
Q 1203 1872 1538 1913 
Q 2219 1994 2541 2106 
Q 2544 2222 2544 2253 
Q 2544 2597 2384 2738 
Q 2169 2928 1744 2928 
Q 1347 2928 1158 2789 
Q 969 2650 878 2297 
L 328 2372 
Q 403 2725 575 2942 
Q 747 3159 1072 3276 
Q 1397 3394 1825 3394 
Q 2250 3394 2515 3294 
Q 2781 3194 2906 3042 
Q 3031 2891 3081 2659 
Q 3109 2516 3109 2141 
L 3109 1391 
Q 3109 606 3145 398 
Q 3181 191 3288 0 
L 2700 0 
Q 2613 175 2588 409 
z
M 2541 1666 
Q 2234 1541 1622 1453 
Q 1275 1403 1131 1340 
Q 988 1278 909 1158 
Q 831 1038 831 891 
Q 831 666 1001 516 
Q 1172 366 1500 366 
Q 1825 366 2078 508 
Q 2331 650 2450 897 
Q 2541 1088 2541 1459 
L 2541 1666 
z
" transform="scale(0.015625)"/>
       <path id="ArialMT-6c" d="M 409 0 
L 409 4581 
L 972 4581 
L 972 0 
L 409 0 
z
" transform="scale(0.015625)"/>
       <path id="ArialMT-74" d="M 1650 503 
L 1731 6 
Q 1494 -44 1306 -44 
Q 1000 -44 831 53 
Q 663 150 594 308 
Q 525 466 525 972 
L 525 2881 
L 113 2881 
L 113 3319 
L 525 3319 
L 525 4141 
L 1084 4478 
L 1084 3319 
L 1650 3319 
L 1650 2881 
L 1084 2881 
L 1084 941 
Q 1084 700 1114 631 
Q 1144 563 1211 522 
Q 1278 481 1403 481 
Q 1497 481 1650 503 
z
" transform="scale(0.015625)"/>
       <path id="ArialMT-68" d="M 422 0 
L 422 4581 
L 984 4581 
L 984 2938 
Q 1378 3394 1978 3394 
Q 2347 3394 2619 3248 
Q 2891 3103 3008 2847 
Q 3125 2591 3125 2103 
L 3125 0 
L 2563 0 
L 2563 2103 
Q 2563 2525 2380 2717 
Q 2197 2909 1863 2909 
Q 1613 2909 1392 2779 
Q 1172 2650 1078 2428 
Q 984 2206 984 1816 
L 984 0 
L 422 0 
z
" transform="scale(0.015625)"/>
      </defs>
      <use xlink:href="#ArialMT-57"/>
      <use xlink:href="#ArialMT-65" x="92.634766"/>
      <use xlink:href="#ArialMT-61" x="148.25"/>
      <use xlink:href="#ArialMT-6c" x="203.865234"/>
      <use xlink:href="#ArialMT-74" x="226.082031"/>
      <use xlink:href="#ArialMT-68" x="253.865234"/>
     </g>
    </g>
   </g>
   <g id="PolyCollection_1">
    <defs>
     <path id="mff4e58cf5a" d="M 78.904091 -190.14394 
L 78.904091 -190.14394 
L 84.906909 -180.024487 
L 90.909727 -180.031442 
L 96.912545 -173.494371 
L 102.915364 -172.477116 
L 108.918182 -168.095466 
L 114.921 -166.280453 
L 120.923818 -160.079311 
L 126.926636 -156.663383 
L 132.929455 -147.558801 
L 138.932273 -145.483778 
L 144.935091 -139.201689 
L 150.937909 -139.201689 
L 156.940727 -139.201689 
L 162.943545 -139.201689 
L 168.946364 -135.353985 
L 174.949182 -129.090206 
L 180.952 -132.341048 
L 186.954818 -133.067807 
L 192.957636 -132.356931 
L 198.960455 -132.884992 
L 204.963273 -138.495435 
L 210.966091 -138.495435 
L 216.968909 -127.964652 
L 222.971727 -127.964652 
L 228.974545 -127.902015 
L 234.977364 -127.902015 
L 240.980182 -118.232572 
L 246.983 -114.173691 
L 252.985818 -114.173691 
L 258.988636 -108.916197 
L 264.991455 -105.568755 
L 270.994273 -105.422085 
L 276.997091 -105.422085 
L 282.999909 -105.419879 
L 289.002727 -92.170422 
L 295.005545 -105.464951 
L 301.008364 -105.564862 
L 307.011182 -102.363118 
L 313.014 -102.363118 
L 319.016818 -102.363118 
L 325.019636 -99.259166 
L 331.022455 -99.259166 
L 337.025273 -95.635534 
L 343.028091 -95.635534 
L 349.030909 -95.560256 
L 355.033727 -90.266129 
L 361.036545 -92.898724 
L 367.039364 -93.056084 
L 373.042182 -93.056084 
L 379.045 -90.923907 
L 385.047818 -90.137467 
L 391.050636 -90.137467 
L 397.053455 -86.76022 
L 403.056273 -86.76022 
L 409.059091 -94.451302 
L 415.061909 -94.441063 
L 421.064727 -94.560201 
L 427.067545 -94.560201 
L 433.070364 -93.644793 
L 439.073182 -99.191117 
L 445.076 -99.191117 
L 451.078818 -99.191789 
L 457.081636 -99.191789 
L 463.084455 -97.521571 
L 469.087273 -97.597993 
L 475.090091 -97.469017 
L 481.092909 -92.799033 
L 487.095727 -86.597892 
L 493.098545 -86.597892 
L 499.101364 -86.535254 
L 505.104182 -86.371746 
L 511.107 -86.371746 
L 517.109818 -86.342615 
L 523.112636 -86.087423 
L 529.115455 -69.207325 
L 535.118273 -71.902504 
L 541.121091 -72.056326 
L 547.123909 -68.219341 
L 553.126727 -68.219341 
L 559.129545 -70.906074 
L 565.132364 -70.906074 
L 571.135182 -70.76727 
L 577.138 -70.734044 
L 583.140818 -70.718917 
L 589.143636 -67.513119 
L 595.146455 -67.450481 
L 601.149273 -67.450481 
L 607.152091 -67.450481 
L 613.154909 -67.450481 
L 619.157727 -70.656279 
L 625.160545 -70.656279 
L 631.163364 -70.656279 
L 637.166182 -70.656279 
L 643.169 -79.250156 
L 649.171818 -79.312794 
L 655.174636 -79.312794 
L 661.177455 -79.312794 
L 667.180273 -72.69509 
L 673.183091 -66.848225 
L 679.185909 -58.53017 
L 679.185909 -389.93358 
L 679.185909 -389.93358 
L 673.183091 -383.732438 
L 667.180273 -377.531297 
L 661.177455 -371.387658 
L 655.174636 -371.387658 
L 649.171818 -365.927483 
L 643.169 -351.273669 
L 637.166182 -351.82345 
L 631.163364 -351.127291 
L 625.160545 -355.642857 
L 619.157727 -360.683527 
L 613.154909 -360.683527 
L 607.152091 -357.335453 
L 601.149273 -368.231158 
L 595.146455 -365.479021 
L 589.143636 -353.065236 
L 583.140818 -351.135507 
L 577.138 -351.14214 
L 571.135182 -357.343926 
L 565.132364 -357.343926 
L 559.129545 -357.186475 
L 553.126727 -350.977982 
L 547.123909 -357.205046 
L 541.121091 -352.956716 
L 535.118273 -350.935273 
L 529.115455 -342.193141 
L 523.112636 -343.165661 
L 517.109818 -342.277392 
L 511.107 -342.277392 
L 505.104182 -342.277392 
L 499.101364 -342.277392 
L 493.098545 -342.277392 
L 487.095727 -335.520598 
L 481.092909 -329.319456 
L 475.090091 -329.288017 
L 469.087273 -329.288017 
L 463.084455 -330.377582 
L 457.081636 -334.221505 
L 451.078818 -330.377582 
L 445.076 -328.620963 
L 439.073182 -330.354652 
L 433.070364 -322.982509 
L 427.067545 -327.459004 
L 421.064727 -327.459004 
L 415.061909 -327.459004 
L 409.059091 -322.922895 
L 403.056273 -322.922895 
L 397.053455 -318.205168 
L 391.050636 -318.17987 
L 385.047818 -318.242508 
L 379.045 -312.641214 
L 373.042182 -308.18165 
L 367.039364 -310.282174 
L 361.036545 -310.212953 
L 355.033727 -312.13429 
L 349.030909 -310.715596 
L 343.028091 -310.858215 
L 337.025273 -305.862584 
L 331.022455 -312.581816 
L 325.019636 -305.600617 
L 319.016818 -305.600617 
L 313.014 -310.296419 
L 307.011182 -305.616635 
L 301.008364 -302.288741 
L 295.005545 -302.362021 
L 289.002727 -304.12679 
L 282.999909 -297.889365 
L 276.997091 -297.889365 
L 270.994273 -302.011333 
L 264.991455 -302.011333 
L 258.988636 -295.810192 
L 252.985818 -295.810192 
L 246.983 -289.514214 
L 240.980182 -289.514214 
L 234.977364 -279.08214 
L 228.974545 -283.757757 
L 222.971727 -277.556616 
L 216.968909 -283.757757 
L 210.966091 -283.757757 
L 204.963273 -283.757757 
L 198.960455 -275.265315 
L 192.957636 -275.265315 
L 186.954818 -273.364728 
L 180.952 -273.547506 
L 174.949182 -270.746772 
L 168.946364 -265.189283 
L 162.943545 -266.965524 
L 156.940727 -265.392107 
L 150.937909 -256.963242 
L 144.935091 -258.892708 
L 138.932273 -261.135479 
L 132.929455 -258.892708 
L 126.926636 -257.716095 
L 120.923818 -257.716095 
L 114.921 -248.953316 
L 108.918182 -240.205186 
L 102.915364 -240.143603 
L 96.912545 -238.93831 
L 90.909727 -238.536252 
L 84.906909 -238.536252 
L 78.904091 -190.14394 
z
" style="stroke: #1f77b4; stroke-opacity: 0.4"/>
    </defs>
    <g clip-path="url(#p7cfe90024b)">
     <use xlink:href="#mff4e58cf5a" x="0" y="432" style="fill: #1f77b4; fill-opacity: 0.4; stroke: #1f77b4; stroke-opacity: 0.4"/>
    </g>
   </g>
   <g id="PolyCollection_2">
    <defs>
     <path id="ma01c0dce35" d="M 78.904091 -190.14394 
L 78.904091 -190.14394 
L 84.906909 -192.523397 
L 90.909727 -186.539801 
L 96.912545 -184.15716 
L 102.915364 -182.247109 
L 108.918182 -181.512461 
L 114.921 -180.686317 
L 120.923818 -173.783671 
L 126.926636 -173.783671 
L 132.929455 -171.064916 
L 138.932273 -164.92682 
L 144.935091 -164.92682 
L 150.937909 -161.234672 
L 156.940727 -160.967277 
L 162.943545 -157.348717 
L 168.946364 -157.747534 
L 174.949182 -157.274096 
L 180.952 -155.564493 
L 186.954818 -153.449762 
L 192.957636 -155.564493 
L 198.960455 -155.564493 
L 204.963273 -152.684656 
L 210.966091 -152.652059 
L 216.968909 -155.711608 
L 222.971727 -155.67234 
L 228.974545 -155.958064 
L 234.977364 -154.549302 
L 240.980182 -146.223998 
L 246.983 -147.100405 
L 252.985818 -146.062282 
L 258.988636 -144.229482 
L 264.991455 -144.229482 
L 270.994273 -146.062282 
L 276.997091 -140.960698 
L 282.999909 -133.110935 
L 289.002727 -133.110935 
L 295.005545 -133.154411 
L 301.008364 -132.495298 
L 307.011182 -134.288574 
L 313.014 -134.221702 
L 319.016818 -134.162472 
L 325.019636 -126.914028 
L 331.022455 -131.373109 
L 337.025273 -131.373109 
L 343.028091 -131.373109 
L 349.030909 -126.866224 
L 355.033727 -126.866224 
L 361.036545 -128.326273 
L 367.039364 -126.792622 
L 373.042182 -123.785476 
L 379.045 -117.877741 
L 385.047818 -117.588388 
L 391.050636 -112.429338 
L 397.053455 -111.003503 
L 403.056273 -111.597047 
L 409.059091 -112.429338 
L 415.061909 -112.429338 
L 421.064727 -114.023225 
L 427.067545 -117.735896 
L 433.070364 -114.023225 
L 439.073182 -117.109954 
L 445.076 -112.462283 
L 451.078818 -115.03253 
L 457.081636 -114.023225 
L 463.084455 -116.945831 
L 469.087273 -113.981174 
L 475.090091 -112.333002 
L 481.092909 -106.1291 
L 487.095727 -107.755793 
L 493.098545 -106.1291 
L 499.101364 -106.125905 
L 505.104182 -109.241243 
L 511.107 -109.241243 
L 517.109818 -114.346512 
L 523.112636 -106.074064 
L 529.115455 -104.140886 
L 535.118273 -100.817988 
L 541.121091 -96.386129 
L 547.123909 -98.711513 
L 553.126727 -97.89316 
L 559.129545 -93.569403 
L 565.132364 -98.711513 
L 571.135182 -98.778779 
L 577.138 -98.778779 
L 583.140818 -98.896058 
L 589.143636 -98.953296 
L 595.146455 -100.131983 
L 601.149273 -96.959662 
L 607.152091 -96.69118 
L 613.154909 -101.930896 
L 619.157727 -101.369977 
L 625.160545 -100.910079 
L 631.163364 -100.904598 
L 637.166182 -100.904598 
L 643.169 -103.191316 
L 649.171818 -103.326127 
L 655.174636 -106.804963 
L 661.177455 -106.883362 
L 667.180273 -106.520779 
L 673.183091 -101.823951 
L 679.185909 -99.161845 
L 679.185909 -336.453586 
L 679.185909 -336.453586 
L 673.183091 -336.453586 
L 667.180273 -330.836438 
L 661.177455 -329.6371 
L 655.174636 -329.611509 
L 649.171818 -329.614346 
L 643.169 -330.113679 
L 637.166182 -330.116573 
L 631.163364 -330.659047 
L 625.160545 -328.533264 
L 619.157727 -328.861454 
L 613.154909 -328.032304 
L 607.152091 -328.032304 
L 601.149273 -328.032304 
L 595.146455 -328.049577 
L 589.143636 -328.861454 
L 583.140818 -322.01042 
L 577.138 -321.812374 
L 571.135182 -323.235529 
L 565.132364 -327.941572 
L 559.129545 -329.032055 
L 553.126727 -329.99073 
L 547.123909 -329.083987 
L 541.121091 -329.038129 
L 535.118273 -323.835997 
L 529.115455 -327.048581 
L 523.112636 -330.046228 
L 517.109818 -327.223653 
L 511.107 -323.823187 
L 505.104182 -320.733959 
L 499.101364 -318.442895 
L 493.098545 -313.771722 
L 487.095727 -313.760699 
L 481.092909 -312.238855 
L 475.090091 -309.582366 
L 469.087273 -305.954445 
L 463.084455 -309.355847 
L 457.081636 -305.954445 
L 451.078818 -305.954445 
L 445.076 -305.954445 
L 439.073182 -305.954445 
L 433.070364 -309.443738 
L 427.067545 -309.443738 
L 421.064727 -303.624608 
L 415.061909 -300.40828 
L 409.059091 -299.975922 
L 403.056273 -299.526234 
L 397.053455 -295.952949 
L 391.050636 -295.952949 
L 385.047818 -296.864816 
L 379.045 -293.385463 
L 373.042182 -295.803832 
L 367.039364 -295.790181 
L 361.036545 -292.562417 
L 355.033727 -285.874643 
L 349.030909 -287.135335 
L 343.028091 -287.448524 
L 337.025273 -284.655736 
L 331.022455 -287.054255 
L 325.019636 -288.408031 
L 319.016818 -288.386584 
L 313.014 -291.082345 
L 307.011182 -288.290736 
L 301.008364 -288.290736 
L 295.005545 -281.111701 
L 289.002727 -279.057174 
L 282.999909 -277.297977 
L 276.997091 -272.594555 
L 270.994273 -275.610268 
L 264.991455 -279.005998 
L 258.988636 -271.002426 
L 252.985818 -269.571199 
L 246.983 -269.02729 
L 240.980182 -269.055296 
L 234.977364 -267.43735 
L 228.974545 -263.492164 
L 222.971727 -261.216923 
L 216.968909 -262.999453 
L 210.966091 -261.216923 
L 204.963273 -253.748928 
L 198.960455 -254.441431 
L 192.957636 -256.785065 
L 186.954818 -252.894867 
L 180.952 -252.656744 
L 174.949182 -254.3126 
L 168.946364 -251.103485 
L 162.943545 -250.264572 
L 156.940727 -248.626774 
L 150.937909 -246.401381 
L 144.935091 -247.154289 
L 138.932273 -247.154289 
L 132.929455 -245.625935 
L 126.926636 -243.48699 
L 120.923818 -240.157102 
L 114.921 -239.255709 
L 108.918182 -236.040165 
L 102.915364 -236.040165 
L 96.912545 -236.007436 
L 90.909727 -230.00315 
L 84.906909 -227.621174 
L 78.904091 -190.14394 
z
" style="stroke: #1f77b4; stroke-opacity: 0.4"/>
    </defs>
    <g clip-path="url(#p7cfe90024b)">
     <use xlink:href="#ma01c0dce35" x="0" y="432" style="fill: #1f77b4; fill-opacity: 0.4; stroke: #1f77b4; stroke-opacity: 0.4"/>
    </g>
   </g>
   <g id="PolyCollection_3">
    <defs>
     <path id="m69ab257a9e" d="M 78.904091 -190.14394 
L 78.904091 -190.14394 
L 84.906909 -200.441894 
L 90.909727 -199.970425 
L 96.912545 -200.237602 
L 102.915364 -198.473496 
L 108.918182 -197.584678 
L 114.921 -197.163227 
L 120.923818 -195.831799 
L 126.926636 -194.738661 
L 132.929455 -196.058445 
L 138.932273 -193.500032 
L 144.935091 -193.182723 
L 150.937909 -193.864122 
L 156.940727 -192.7967 
L 162.943545 -193.129246 
L 168.946364 -193.248165 
L 174.949182 -192.92239 
L 180.952 -191.536694 
L 186.954818 -190.432275 
L 192.957636 -190.407514 
L 198.960455 -190.351668 
L 204.963273 -189.873193 
L 210.966091 -190.014315 
L 216.968909 -189.873193 
L 222.971727 -188.38162 
L 228.974545 -187.465641 
L 234.977364 -186.359031 
L 240.980182 -185.83289 
L 246.983 -185.169629 
L 252.985818 -184.376573 
L 258.988636 -184.528663 
L 264.991455 -184.376573 
L 270.994273 -183.880157 
L 276.997091 -182.128104 
L 282.999909 -181.907684 
L 289.002727 -181.736372 
L 295.005545 -180.258044 
L 301.008364 -177.73543 
L 307.011182 -176.308126 
L 313.014 -176.395461 
L 319.016818 -178.525626 
L 325.019636 -176.213374 
L 331.022455 -176.539876 
L 337.025273 -176.518366 
L 343.028091 -179.569834 
L 349.030909 -179.748564 
L 355.033727 -178.099093 
L 361.036545 -178.832134 
L 367.039364 -179.614205 
L 373.042182 -175.762508 
L 379.045 -172.191892 
L 385.047818 -169.54807 
L 391.050636 -171.521965 
L 397.053455 -174.621485 
L 403.056273 -172.14085 
L 409.059091 -172.55831 
L 415.061909 -172.046453 
L 421.064727 -172.042909 
L 427.067545 -170.991319 
L 433.070364 -168.470303 
L 439.073182 -170.188219 
L 445.076 -168.62593 
L 451.078818 -168.564785 
L 457.081636 -165.629251 
L 463.084455 -165.474245 
L 469.087273 -165.629251 
L 475.090091 -166.32035 
L 481.092909 -165.629251 
L 487.095727 -165.629251 
L 493.098545 -162.382903 
L 499.101364 -165.344632 
L 505.104182 -165.344632 
L 511.107 -163.966178 
L 517.109818 -165.419684 
L 523.112636 -162.637132 
L 529.115455 -162.381134 
L 535.118273 -160.669182 
L 541.121091 -159.626759 
L 547.123909 -159.277198 
L 553.126727 -159.247589 
L 559.129545 -163.847911 
L 565.132364 -159.697682 
L 571.135182 -159.697682 
L 577.138 -165.749857 
L 583.140818 -166.257079 
L 589.143636 -165.911292 
L 595.146455 -165.911292 
L 601.149273 -165.456216 
L 607.152091 -161.620286 
L 613.154909 -160.423311 
L 619.157727 -162.437246 
L 625.160545 -163.781443 
L 631.163364 -164.879079 
L 637.166182 -166.295519 
L 643.169 -165.472234 
L 649.171818 -163.812687 
L 655.174636 -166.043248 
L 661.177455 -165.484966 
L 667.180273 -163.541003 
L 673.183091 -162.478511 
L 679.185909 -162.661671 
L 679.185909 -259.71749 
L 679.185909 -259.71749 
L 673.183091 -259.71749 
L 667.180273 -259.456022 
L 661.177455 -257.552506 
L 655.174636 -255.491295 
L 649.171818 -258.098197 
L 643.169 -258.866648 
L 637.166182 -260.121371 
L 631.163364 -258.866648 
L 625.160545 -256.052301 
L 619.157727 -255.203065 
L 613.154909 -259.009994 
L 607.152091 -259.009994 
L 601.149273 -255.194747 
L 595.146455 -255.674964 
L 589.143636 -252.850797 
L 583.140818 -254.971733 
L 577.138 -254.642894 
L 571.135182 -253.98718 
L 565.132364 -255.64965 
L 559.129545 -255.939034 
L 553.126727 -255.939034 
L 547.123909 -255.939034 
L 541.121091 -253.200598 
L 535.118273 -253.200598 
L 529.115455 -252.364968 
L 523.112636 -253.116988 
L 517.109818 -251.912087 
L 511.107 -251.514496 
L 505.104182 -251.912087 
L 499.101364 -253.057128 
L 493.098545 -253.922885 
L 487.095727 -253.173843 
L 481.092909 -254.401951 
L 475.090091 -252.25433 
L 469.087273 -253.593554 
L 463.084455 -253.716408 
L 457.081636 -249.907461 
L 451.078818 -247.971722 
L 445.076 -249.749037 
L 439.073182 -247.955738 
L 433.070364 -247.955738 
L 427.067545 -247.955738 
L 421.064727 -247.955738 
L 415.061909 -250.782312 
L 409.059091 -248.979157 
L 403.056273 -247.276701 
L 397.053455 -247.276701 
L 391.050636 -244.451148 
L 385.047818 -247.511895 
L 379.045 -244.224883 
L 373.042182 -245.664821 
L 367.039364 -243.354873 
L 361.036545 -240.428011 
L 355.033727 -240.428011 
L 349.030909 -242.718992 
L 343.028091 -242.182598 
L 337.025273 -242.165747 
L 331.022455 -241.266237 
L 325.019636 -238.90663 
L 319.016818 -241.887058 
L 313.014 -237.418663 
L 307.011182 -238.461128 
L 301.008364 -238.238183 
L 295.005545 -240.039642 
L 289.002727 -240.469489 
L 282.999909 -238.262192 
L 276.997091 -239.292289 
L 270.994273 -236.779428 
L 264.991455 -237.659718 
L 258.988636 -236.529089 
L 252.985818 -236.056231 
L 246.983 -234.422974 
L 240.980182 -233.627241 
L 234.977364 -233.914422 
L 228.974545 -233.627241 
L 222.971727 -235.598874 
L 216.968909 -233.943117 
L 210.966091 -232.343998 
L 204.963273 -232.921895 
L 198.960455 -229.632365 
L 192.957636 -229.976535 
L 186.954818 -231.432446 
L 180.952 -229.946656 
L 174.949182 -229.551798 
L 168.946364 -229.009845 
L 162.943545 -225.329073 
L 156.940727 -225.634023 
L 150.937909 -226.704609 
L 144.935091 -226.48969 
L 138.932273 -226.551483 
L 132.929455 -223.091278 
L 126.926636 -221.886397 
L 120.923818 -221.791292 
L 114.921 -221.580789 
L 108.918182 -220.554385 
L 102.915364 -219.60561 
L 96.912545 -217.627648 
L 90.909727 -216.55223 
L 84.906909 -216.55223 
L 78.904091 -190.14394 
z
" style="stroke: #1f77b4; stroke-opacity: 0.4"/>
    </defs>
    <g clip-path="url(#p7cfe90024b)">
     <use xlink:href="#m69ab257a9e" x="0" y="432" style="fill: #1f77b4; fill-opacity: 0.4; stroke: #1f77b4; stroke-opacity: 0.4"/>
    </g>
   </g>
   <g id="line2d_13">
    <path d="M 78.904091 241.85606 
L 84.906909 222.950702 
L 90.909727 221.755462 
L 96.912545 221.36956 
L 102.915364 222.361448 
L 108.918182 223.429036 
L 114.921 223.418367 
L 120.923818 222.184065 
L 126.926636 222.56141 
L 132.929455 221.063783 
L 138.932273 221.832191 
L 144.935091 220.525139 
L 150.937909 221.429293 
L 156.940727 221.611134 
L 162.943545 222.344289 
L 168.946364 223.259163 
L 174.949182 222.123091 
L 180.952 223.617991 
L 186.954818 223.296682 
L 192.957636 222.611794 
L 198.960455 223.296682 
L 204.963273 220.835087 
L 210.966091 223.510241 
L 216.968909 225.568301 
L 222.971727 226.84271 
L 228.974545 225.672218 
L 234.977364 224.818525 
L 240.980182 225.048828 
L 246.983 227.463604 
L 252.985818 225.472602 
L 258.988636 224.906508 
L 264.991455 224.258068 
L 270.994273 224.452183 
L 276.997091 224.059414 
L 282.999909 223.742619 
L 289.002727 223.910486 
L 295.005545 224.044209 
L 301.008364 223.329377 
L 307.011182 221.6938 
L 313.014 222.835568 
L 319.016818 222.005733 
L 325.019636 221.16876 
L 331.022455 222.274929 
L 337.025273 222.686534 
L 343.028091 222.765493 
L 349.030909 224.080928 
L 355.033727 223.206923 
L 361.036545 222.8693 
L 367.039364 222.740332 
L 373.042182 222.653086 
L 379.045 223.418688 
L 385.047818 223.300073 
L 391.050636 223.149596 
L 397.053455 223.418688 
L 403.056273 224.279978 
L 409.059091 225.00921 
L 415.061909 225.922235 
L 421.064727 224.911746 
L 427.067545 225.922235 
L 433.070364 221.40733 
L 439.073182 221.807273 
L 445.076 224.357059 
L 451.078818 224.357059 
L 457.081636 221.520159 
L 463.084455 223.087496 
L 469.087273 222.642355 
L 475.090091 225.584745 
L 481.092909 226.714027 
L 487.095727 227.134061 
L 493.098545 226.658616 
L 499.101364 229.678244 
L 505.104182 229.93033 
L 511.107 227.155079 
L 517.109818 229.411936 
L 523.112636 225.645143 
L 529.115455 226.474909 
L 535.118273 225.738491 
L 541.121091 227.542136 
L 547.123909 226.973776 
L 553.126727 225.294843 
L 559.129545 223.95473 
L 565.132364 224.525431 
L 571.135182 222.757306 
L 577.138 223.99708 
L 583.140818 224.164136 
L 589.143636 224.216444 
L 595.146455 222.739154 
L 601.149273 224.317616 
L 607.152091 225.492105 
L 613.154909 230.249906 
L 619.157727 230.401311 
L 625.160545 230.401311 
L 631.163364 229.516908 
L 637.166182 230.207646 
L 643.169 229.857244 
L 649.171818 228.30193 
L 655.174636 226.616072 
L 661.177455 226.48919 
L 667.180273 224.585226 
L 673.183091 225.568862 
L 679.185909 225.392029 
" clip-path="url(#p7cfe90024b)" style="fill: none; stroke: #1f77b4; stroke-width: 1.5; stroke-linecap: round"/>
   </g>
   <g id="patch_3">
    <path d="M 48.89 390.04 
L 48.89 25.49625 
" style="fill: none; stroke: #ffffff; stroke-width: 0.8; stroke-linejoin: miter; stroke-linecap: square"/>
   </g>
   <g id="patch_4">
    <path d="M 709.2 390.04 
L 709.2 25.49625 
" style="fill: none; stroke: #ffffff; stroke-width: 0.8; stroke-linejoin: miter; stroke-linecap: square"/>
   </g>
   <g id="patch_5">
    <path d="M 48.89 390.04 
L 709.2 390.04 
" style="fill: none; stroke: #ffffff; stroke-width: 0.8; stroke-linejoin: miter; stroke-linecap: square"/>
   </g>
   <g id="patch_6">
    <path d="M 48.89 25.49625 
L 709.2 25.49625 
" style="fill: none; stroke: #ffffff; stroke-width: 0.8; stroke-linejoin: miter; stroke-linecap: square"/>
   </g>
   <g id="text_15">
    <!-- Distribution of wealth between population over time -->
    <g style="fill: #262626" transform="translate(243.31 19.49625) scale(0.12 -0.12)">
     <defs>
      <path id="ArialMT-44" d="M 494 0 
L 494 4581 
L 2072 4581 
Q 2606 4581 2888 4516 
Q 3281 4425 3559 4188 
Q 3922 3881 4101 3404 
Q 4281 2928 4281 2316 
Q 4281 1794 4159 1391 
Q 4038 988 3847 723 
Q 3656 459 3429 307 
Q 3203 156 2883 78 
Q 2563 0 2147 0 
L 494 0 
z
M 1100 541 
L 2078 541 
Q 2531 541 2789 625 
Q 3047 709 3200 863 
Q 3416 1078 3536 1442 
Q 3656 1806 3656 2325 
Q 3656 3044 3420 3430 
Q 3184 3816 2847 3947 
Q 2603 4041 2063 4041 
L 1100 4041 
L 1100 541 
z
" transform="scale(0.015625)"/>
      <path id="ArialMT-73" d="M 197 991 
L 753 1078 
Q 800 744 1014 566 
Q 1228 388 1613 388 
Q 2000 388 2187 545 
Q 2375 703 2375 916 
Q 2375 1106 2209 1216 
Q 2094 1291 1634 1406 
Q 1016 1563 777 1677 
Q 538 1791 414 1992 
Q 291 2194 291 2438 
Q 291 2659 392 2848 
Q 494 3038 669 3163 
Q 800 3259 1026 3326 
Q 1253 3394 1513 3394 
Q 1903 3394 2198 3281 
Q 2494 3169 2634 2976 
Q 2775 2784 2828 2463 
L 2278 2388 
Q 2241 2644 2061 2787 
Q 1881 2931 1553 2931 
Q 1166 2931 1000 2803 
Q 834 2675 834 2503 
Q 834 2394 903 2306 
Q 972 2216 1119 2156 
Q 1203 2125 1616 2013 
Q 2213 1853 2448 1751 
Q 2684 1650 2818 1456 
Q 2953 1263 2953 975 
Q 2953 694 2789 445 
Q 2625 197 2315 61 
Q 2006 -75 1616 -75 
Q 969 -75 630 194 
Q 291 463 197 991 
z
" transform="scale(0.015625)"/>
      <path id="ArialMT-72" d="M 416 0 
L 416 3319 
L 922 3319 
L 922 2816 
Q 1116 3169 1280 3281 
Q 1444 3394 1641 3394 
Q 1925 3394 2219 3213 
L 2025 2691 
Q 1819 2813 1613 2813 
Q 1428 2813 1281 2702 
Q 1134 2591 1072 2394 
Q 978 2094 978 1738 
L 978 0 
L 416 0 
z
" transform="scale(0.015625)"/>
      <path id="ArialMT-62" d="M 941 0 
L 419 0 
L 419 4581 
L 981 4581 
L 981 2947 
Q 1338 3394 1891 3394 
Q 2197 3394 2470 3270 
Q 2744 3147 2920 2923 
Q 3097 2700 3197 2384 
Q 3297 2069 3297 1709 
Q 3297 856 2875 390 
Q 2453 -75 1863 -75 
Q 1275 -75 941 416 
L 941 0 
z
M 934 1684 
Q 934 1088 1097 822 
Q 1363 388 1816 388 
Q 2184 388 2453 708 
Q 2722 1028 2722 1663 
Q 2722 2313 2464 2622 
Q 2206 2931 1841 2931 
Q 1472 2931 1203 2611 
Q 934 2291 934 1684 
z
" transform="scale(0.015625)"/>
      <path id="ArialMT-75" d="M 2597 0 
L 2597 488 
Q 2209 -75 1544 -75 
Q 1250 -75 995 37 
Q 741 150 617 320 
Q 494 491 444 738 
Q 409 903 409 1263 
L 409 3319 
L 972 3319 
L 972 1478 
Q 972 1038 1006 884 
Q 1059 663 1231 536 
Q 1403 409 1656 409 
Q 1909 409 2131 539 
Q 2353 669 2445 892 
Q 2538 1116 2538 1541 
L 2538 3319 
L 3100 3319 
L 3100 0 
L 2597 0 
z
" transform="scale(0.015625)"/>
      <path id="ArialMT-6f" d="M 213 1659 
Q 213 2581 725 3025 
Q 1153 3394 1769 3394 
Q 2453 3394 2887 2945 
Q 3322 2497 3322 1706 
Q 3322 1066 3130 698 
Q 2938 331 2570 128 
Q 2203 -75 1769 -75 
Q 1072 -75 642 372 
Q 213 819 213 1659 
z
M 791 1659 
Q 791 1022 1069 705 
Q 1347 388 1769 388 
Q 2188 388 2466 706 
Q 2744 1025 2744 1678 
Q 2744 2294 2464 2611 
Q 2184 2928 1769 2928 
Q 1347 2928 1069 2612 
Q 791 2297 791 1659 
z
" transform="scale(0.015625)"/>
      <path id="ArialMT-6e" d="M 422 0 
L 422 3319 
L 928 3319 
L 928 2847 
Q 1294 3394 1984 3394 
Q 2284 3394 2536 3286 
Q 2788 3178 2913 3003 
Q 3038 2828 3088 2588 
Q 3119 2431 3119 2041 
L 3119 0 
L 2556 0 
L 2556 2019 
Q 2556 2363 2490 2533 
Q 2425 2703 2258 2804 
Q 2091 2906 1866 2906 
Q 1506 2906 1245 2678 
Q 984 2450 984 1813 
L 984 0 
L 422 0 
z
" transform="scale(0.015625)"/>
      <path id="ArialMT-20" transform="scale(0.015625)"/>
      <path id="ArialMT-66" d="M 556 0 
L 556 2881 
L 59 2881 
L 59 3319 
L 556 3319 
L 556 3672 
Q 556 4006 616 4169 
Q 697 4388 901 4523 
Q 1106 4659 1475 4659 
Q 1713 4659 2000 4603 
L 1916 4113 
Q 1741 4144 1584 4144 
Q 1328 4144 1222 4034 
Q 1116 3925 1116 3625 
L 1116 3319 
L 1763 3319 
L 1763 2881 
L 1116 2881 
L 1116 0 
L 556 0 
z
" transform="scale(0.015625)"/>
      <path id="ArialMT-77" d="M 1034 0 
L 19 3319 
L 600 3319 
L 1128 1403 
L 1325 691 
Q 1338 744 1497 1375 
L 2025 3319 
L 2603 3319 
L 3100 1394 
L 3266 759 
L 3456 1400 
L 4025 3319 
L 4572 3319 
L 3534 0 
L 2950 0 
L 2422 1988 
L 2294 2553 
L 1622 0 
L 1034 0 
z
" transform="scale(0.015625)"/>
      <path id="ArialMT-70" d="M 422 -1272 
L 422 3319 
L 934 3319 
L 934 2888 
Q 1116 3141 1344 3267 
Q 1572 3394 1897 3394 
Q 2322 3394 2647 3175 
Q 2972 2956 3137 2557 
Q 3303 2159 3303 1684 
Q 3303 1175 3120 767 
Q 2938 359 2589 142 
Q 2241 -75 1856 -75 
Q 1575 -75 1351 44 
Q 1128 163 984 344 
L 984 -1272 
L 422 -1272 
z
M 931 1641 
Q 931 1000 1190 694 
Q 1450 388 1819 388 
Q 2194 388 2461 705 
Q 2728 1022 2728 1688 
Q 2728 2322 2467 2637 
Q 2206 2953 1844 2953 
Q 1484 2953 1207 2617 
Q 931 2281 931 1641 
z
" transform="scale(0.015625)"/>
      <path id="ArialMT-76" d="M 1344 0 
L 81 3319 
L 675 3319 
L 1388 1331 
Q 1503 1009 1600 663 
Q 1675 925 1809 1294 
L 2547 3319 
L 3125 3319 
L 1869 0 
L 1344 0 
z
" transform="scale(0.015625)"/>
     </defs>
     <use xlink:href="#ArialMT-44"/>
     <use xlink:href="#ArialMT-69" x="72.216797"/>
     <use xlink:href="#ArialMT-73" x="94.433594"/>
     <use xlink:href="#ArialMT-74" x="144.433594"/>
     <use xlink:href="#ArialMT-72" x="172.216797"/>
     <use xlink:href="#ArialMT-69" x="205.517578"/>
     <use xlink:href="#ArialMT-62" x="227.734375"/>
     <use xlink:href="#ArialMT-75" x="283.349609"/>
     <use xlink:href="#ArialMT-74" x="338.964844"/>
     <use xlink:href="#ArialMT-69" x="366.748047"/>
     <use xlink:href="#ArialMT-6f" x="388.964844"/>
     <use xlink:href="#ArialMT-6e" x="444.580078"/>
     <use xlink:href="#ArialMT-20" x="500.195312"/>
     <use xlink:href="#ArialMT-6f" x="527.978516"/>
     <use xlink:href="#ArialMT-66" x="583.59375"/>
     <use xlink:href="#ArialMT-20" x="611.376953"/>
     <use xlink:href="#ArialMT-77" x="639.160156"/>
     <use xlink:href="#ArialMT-65" x="711.376953"/>
     <use xlink:href="#ArialMT-61" x="766.992188"/>
     <use xlink:href="#ArialMT-6c" x="822.607422"/>
     <use xlink:href="#ArialMT-74" x="844.824219"/>
     <use xlink:href="#ArialMT-68" x="872.607422"/>
     <use xlink:href="#ArialMT-20" x="928.222656"/>
     <use xlink:href="#ArialMT-62" x="956.005859"/>
     <use xlink:href="#ArialMT-65" x="1011.621094"/>
     <use xlink:href="#ArialMT-74" x="1067.236328"/>
     <use xlink:href="#ArialMT-77" x="1095.019531"/>
     <use xlink:href="#ArialMT-65" x="1167.236328"/>
     <use xlink:href="#ArialMT-65" x="1222.851562"/>
     <use xlink:href="#ArialMT-6e" x="1278.466797"/>
     <use xlink:href="#ArialMT-20" x="1334.082031"/>
     <use xlink:href="#ArialMT-70" x="1361.865234"/>
     <use xlink:href="#ArialMT-6f" x="1417.480469"/>
     <use xlink:href="#ArialMT-70" x="1473.095703"/>
     <use xlink:href="#ArialMT-75" x="1528.710938"/>
     <use xlink:href="#ArialMT-6c" x="1584.326172"/>
     <use xlink:href="#ArialMT-61" x="1606.542969"/>
     <use xlink:href="#ArialMT-74" x="1662.158203"/>
     <use xlink:href="#ArialMT-69" x="1689.941406"/>
     <use xlink:href="#ArialMT-6f" x="1712.158203"/>
     <use xlink:href="#ArialMT-6e" x="1767.773438"/>
     <use xlink:href="#ArialMT-20" x="1823.388672"/>
     <use xlink:href="#ArialMT-6f" x="1851.171875"/>
     <use xlink:href="#ArialMT-76" x="1906.787109"/>
     <use xlink:href="#ArialMT-65" x="1956.787109"/>
     <use xlink:href="#ArialMT-72" x="2012.402344"/>
     <use xlink:href="#ArialMT-20" x="2045.703125"/>
     <use xlink:href="#ArialMT-74" x="2073.486328"/>
     <use xlink:href="#ArialMT-69" x="2101.269531"/>
     <use xlink:href="#ArialMT-6d" x="2123.486328"/>
     <use xlink:href="#ArialMT-65" x="2206.787109"/>
    </g>
   </g>
   <g id="legend_1">
    <g id="patch_7">
     <path d="M 55.89 90.0775 
L 159.038438 90.0775 
Q 161.038438 90.0775 161.038438 88.0775 
L 161.038438 32.49625 
Q 161.038438 30.49625 159.038438 30.49625 
L 55.89 30.49625 
Q 53.89 30.49625 53.89 32.49625 
L 53.89 88.0775 
Q 53.89 90.0775 55.89 90.0775 
z
" style="fill: #eaeaf2; opacity: 0.8; stroke: #cccccc; stroke-linejoin: miter"/>
    </g>
    <g id="patch_8">
     <path d="M 57.89 41.654063 
L 77.89 41.654063 
L 77.89 34.654063 
L 57.89 34.654063 
z
" style="fill: #1f77b4; fill-opacity: 0.4; stroke: #1f77b4; stroke-opacity: 0.4; stroke-linejoin: miter"/>
    </g>
    <g id="text_16">
     <!-- 99% distribution -->
     <g style="fill: #262626" transform="translate(85.89 41.654063) scale(0.1 -0.1)">
      <defs>
       <path id="ArialMT-39" d="M 350 1059 
L 891 1109 
Q 959 728 1153 556 
Q 1347 384 1650 384 
Q 1909 384 2104 503 
Q 2300 622 2425 820 
Q 2550 1019 2634 1356 
Q 2719 1694 2719 2044 
Q 2719 2081 2716 2156 
Q 2547 1888 2255 1720 
Q 1963 1553 1622 1553 
Q 1053 1553 659 1965 
Q 266 2378 266 3053 
Q 266 3750 677 4175 
Q 1088 4600 1706 4600 
Q 2153 4600 2523 4359 
Q 2894 4119 3086 3673 
Q 3278 3228 3278 2384 
Q 3278 1506 3087 986 
Q 2897 466 2520 194 
Q 2144 -78 1638 -78 
Q 1100 -78 759 220 
Q 419 519 350 1059 
z
M 2653 3081 
Q 2653 3566 2395 3850 
Q 2138 4134 1775 4134 
Q 1400 4134 1122 3828 
Q 844 3522 844 3034 
Q 844 2597 1108 2323 
Q 1372 2050 1759 2050 
Q 2150 2050 2401 2323 
Q 2653 2597 2653 3081 
z
" transform="scale(0.015625)"/>
       <path id="ArialMT-25" d="M 372 3481 
Q 372 3972 619 4315 
Q 866 4659 1334 4659 
Q 1766 4659 2048 4351 
Q 2331 4044 2331 3447 
Q 2331 2866 2045 2552 
Q 1759 2238 1341 2238 
Q 925 2238 648 2547 
Q 372 2856 372 3481 
z
M 1350 4272 
Q 1141 4272 1002 4090 
Q 863 3909 863 3425 
Q 863 2984 1003 2804 
Q 1144 2625 1350 2625 
Q 1563 2625 1702 2806 
Q 1841 2988 1841 3469 
Q 1841 3913 1700 4092 
Q 1559 4272 1350 4272 
z
M 1353 -169 
L 3859 4659 
L 4316 4659 
L 1819 -169 
L 1353 -169 
z
M 3334 1075 
Q 3334 1569 3581 1911 
Q 3828 2253 4300 2253 
Q 4731 2253 5014 1945 
Q 5297 1638 5297 1041 
Q 5297 459 5011 145 
Q 4725 -169 4303 -169 
Q 3888 -169 3611 142 
Q 3334 453 3334 1075 
z
M 4316 1866 
Q 4103 1866 3964 1684 
Q 3825 1503 3825 1019 
Q 3825 581 3965 400 
Q 4106 219 4313 219 
Q 4528 219 4667 400 
Q 4806 581 4806 1063 
Q 4806 1506 4665 1686 
Q 4525 1866 4316 1866 
z
" transform="scale(0.015625)"/>
       <path id="ArialMT-64" d="M 2575 0 
L 2575 419 
Q 2259 -75 1647 -75 
Q 1250 -75 917 144 
Q 584 363 401 755 
Q 219 1147 219 1656 
Q 219 2153 384 2558 
Q 550 2963 881 3178 
Q 1213 3394 1622 3394 
Q 1922 3394 2156 3267 
Q 2391 3141 2538 2938 
L 2538 4581 
L 3097 4581 
L 3097 0 
L 2575 0 
z
M 797 1656 
Q 797 1019 1065 703 
Q 1334 388 1700 388 
Q 2069 388 2326 689 
Q 2584 991 2584 1609 
Q 2584 2291 2321 2609 
Q 2059 2928 1675 2928 
Q 1300 2928 1048 2622 
Q 797 2316 797 1656 
z
" transform="scale(0.015625)"/>
      </defs>
      <use xlink:href="#ArialMT-39"/>
      <use xlink:href="#ArialMT-39" x="55.615234"/>
      <use xlink:href="#ArialMT-25" x="111.230469"/>
      <use xlink:href="#ArialMT-20" x="200.146484"/>
      <use xlink:href="#ArialMT-64" x="227.929688"/>
      <use xlink:href="#ArialMT-69" x="283.544922"/>
      <use xlink:href="#ArialMT-73" x="305.761719"/>
      <use xlink:href="#ArialMT-74" x="355.761719"/>
      <use xlink:href="#ArialMT-72" x="383.544922"/>
      <use xlink:href="#ArialMT-69" x="416.845703"/>
      <use xlink:href="#ArialMT-62" x="439.0625"/>
      <use xlink:href="#ArialMT-75" x="494.677734"/>
      <use xlink:href="#ArialMT-74" x="550.292969"/>
      <use xlink:href="#ArialMT-69" x="578.076172"/>
      <use xlink:href="#ArialMT-6f" x="600.292969"/>
      <use xlink:href="#ArialMT-6e" x="655.908203"/>
     </g>
    </g>
    <g id="patch_9">
     <path d="M 57.89 55.799375 
L 77.89 55.799375 
L 77.89 48.799375 
L 57.89 48.799375 
z
" style="fill: #1f77b4; fill-opacity: 0.4; stroke: #1f77b4; stroke-opacity: 0.4; stroke-linejoin: miter"/>
    </g>
    <g id="text_17">
     <!-- 90% distribution -->
     <g style="fill: #262626" transform="translate(85.89 55.799375) scale(0.1 -0.1)">
      <use xlink:href="#ArialMT-39"/>
      <use xlink:href="#ArialMT-30" x="55.615234"/>
      <use xlink:href="#ArialMT-25" x="111.230469"/>
      <use xlink:href="#ArialMT-20" x="200.146484"/>
      <use xlink:href="#ArialMT-64" x="227.929688"/>
      <use xlink:href="#ArialMT-69" x="283.544922"/>
      <use xlink:href="#ArialMT-73" x="305.761719"/>
      <use xlink:href="#ArialMT-74" x="355.761719"/>
      <use xlink:href="#ArialMT-72" x="383.544922"/>
      <use xlink:href="#ArialMT-69" x="416.845703"/>
      <use xlink:href="#ArialMT-62" x="439.0625"/>
      <use xlink:href="#ArialMT-75" x="494.677734"/>
      <use xlink:href="#ArialMT-74" x="550.292969"/>
      <use xlink:href="#ArialMT-69" x="578.076172"/>
      <use xlink:href="#ArialMT-6f" x="600.292969"/>
      <use xlink:href="#ArialMT-6e" x="655.908203"/>
     </g>
    </g>
    <g id="patch_10">
     <path d="M 57.89 69.944687 
L 77.89 69.944687 
L 77.89 62.944687 
L 57.89 62.944687 
z
" style="fill: #1f77b4; fill-opacity: 0.4; stroke: #1f77b4; stroke-opacity: 0.4; stroke-linejoin: miter"/>
    </g>
    <g id="text_18">
     <!-- 50% distribution -->
     <g style="fill: #262626" transform="translate(85.89 69.944687) scale(0.1 -0.1)">
      <defs>
       <path id="ArialMT-35" d="M 266 1200 
L 856 1250 
Q 922 819 1161 601 
Q 1400 384 1738 384 
Q 2144 384 2425 690 
Q 2706 997 2706 1503 
Q 2706 1984 2436 2262 
Q 2166 2541 1728 2541 
Q 1456 2541 1237 2417 
Q 1019 2294 894 2097 
L 366 2166 
L 809 4519 
L 3088 4519 
L 3088 3981 
L 1259 3981 
L 1013 2750 
Q 1425 3038 1878 3038 
Q 2478 3038 2890 2622 
Q 3303 2206 3303 1553 
Q 3303 931 2941 478 
Q 2500 -78 1738 -78 
Q 1113 -78 717 272 
Q 322 622 266 1200 
z
" transform="scale(0.015625)"/>
      </defs>
      <use xlink:href="#ArialMT-35"/>
      <use xlink:href="#ArialMT-30" x="55.615234"/>
      <use xlink:href="#ArialMT-25" x="111.230469"/>
      <use xlink:href="#ArialMT-20" x="200.146484"/>
      <use xlink:href="#ArialMT-64" x="227.929688"/>
      <use xlink:href="#ArialMT-69" x="283.544922"/>
      <use xlink:href="#ArialMT-73" x="305.761719"/>
      <use xlink:href="#ArialMT-74" x="355.761719"/>
      <use xlink:href="#ArialMT-72" x="383.544922"/>
      <use xlink:href="#ArialMT-69" x="416.845703"/>
      <use xlink:href="#ArialMT-62" x="439.0625"/>
      <use xlink:href="#ArialMT-75" x="494.677734"/>
      <use xlink:href="#ArialMT-74" x="550.292969"/>
      <use xlink:href="#ArialMT-69" x="578.076172"/>
      <use xlink:href="#ArialMT-6f" x="600.292969"/>
      <use xlink:href="#ArialMT-6e" x="655.908203"/>
     </g>
    </g>
    <g id="line2d_14">
     <path d="M 57.89 80.59 
L 67.89 80.59 
L 77.89 80.59 
" style="fill: none; stroke: #1f77b4; stroke-width: 1.5; stroke-linecap: round"/>
    </g>
    <g id="text_19">
     <!-- Median -->
     <g style="fill: #262626" transform="translate(85.89 84.09) scale(0.1 -0.1)">
      <defs>
       <path id="ArialMT-4d" d="M 475 0 
L 475 4581 
L 1388 4581 
L 2472 1338 
Q 2622 884 2691 659 
Q 2769 909 2934 1394 
L 4031 4581 
L 4847 4581 
L 4847 0 
L 4263 0 
L 4263 3834 
L 2931 0 
L 2384 0 
L 1059 3900 
L 1059 0 
L 475 0 
z
" transform="scale(0.015625)"/>
      </defs>
      <use xlink:href="#ArialMT-4d"/>
      <use xlink:href="#ArialMT-65" x="83.300781"/>
      <use xlink:href="#ArialMT-64" x="138.916016"/>
      <use xlink:href="#ArialMT-69" x="194.53125"/>
      <use xlink:href="#ArialMT-61" x="216.748047"/>
      <use xlink:href="#ArialMT-6e" x="272.363281"/>
     </g>
    </g>
   </g>
  </g>
 </g>
 <defs>
  <clipPath id="p7cfe90024b">
   <rect x="48.89" y="25.49625" width="660.31" height="364.54375"/>
  </clipPath>
 </defs>
</svg>
